<?xml version="1.0"?>
<svg xmlns="http://www.w3.org/2000/svg" viewBox="0 0 64 64" width="512" height="512"><g id="Design_Tools" data-name="Design Tools"><path d="M54,52.586V3a1,1,0,0,0-1-1H45a1,1,0,0,0-1,1V9.119a.991.991,0,0,0-.273-.606l-4.24-4.24a1,1,0,0,0-1.414,0L35.414,6.932q-.207-.093-.414-.174V3a1,1,0,0,0-1-1H28a1,1,0,0,0-1,1V6.758q-.207.081-.414.174L23.927,4.273a1,1,0,0,0-1.414,0l-4.24,4.24a1,1,0,0,0,0,1.414l2.659,2.659c-.061.138-.119.275-.174.414H17a1,1,0,0,0-1,1v.586L3.707,2.293A1,1,0,0,0,2,3V61a1,1,0,0,0,1,1H61a1,1,0,0,0,.707-1.707ZM49.414,48H52v2.586ZM52,4V6H49V8h3v2H49v2h3v2H49v2h3v2H49v2h3v2H49v2h3v2H49v2h3v2H49v2h3v2H49v2h3v2H49v2h3v2H49v2h3v2H49v1.586l-3-3V4ZM44,24.68a.991.991,0,0,0-.273-.607l-2.659-2.659c.061-.138.119-.275.174-.414H44Zm0,.2v17.7L33.414,32H34a1,1,0,0,0,1-1V27.242q.207-.081.414-.174l2.659,2.659a1,1,0,0,0,1.414,0l4.24-4.24A.991.991,0,0,0,44,24.881ZM44,9.32V13H41.242c-.055-.139-.113-.276-.174-.414l2.659-2.659A.991.991,0,0,0,44,9.32ZM18,15h3.46a1,1,0,0,0,.952-.693,9.471,9.471,0,0,1,.616-1.466,1,1,0,0,0-.181-1.168L20.394,9.22,23.22,6.4l2.453,2.452a1,1,0,0,0,1.167.18,9.457,9.457,0,0,1,1.466-.615A1,1,0,0,0,29,7.46V4h4V7.46a1,1,0,0,0,.694.952,9.457,9.457,0,0,1,1.466.615,1,1,0,0,0,1.167-.18L38.78,6.4,41.606,9.22l-2.453,2.453a1,1,0,0,0-.181,1.168,9.471,9.471,0,0,1,.616,1.466A1,1,0,0,0,40.54,15H44v4H40.54a1,1,0,0,0-.952.693,9.471,9.471,0,0,1-.616,1.466,1,1,0,0,0,.181,1.168l2.453,2.453L38.78,27.605l-2.453-2.452a1,1,0,0,0-1.167-.18,9.457,9.457,0,0,1-1.466.615A1,1,0,0,0,33,26.54V30H31.414L18,16.586ZM52,60V57H50v3H46V57H44v3H40V57H38v3H34V57H32v3H28V57H26v3H22V57H20v3H16V57H14v3H10V57H8v3H4V56H7V54H4V50H7V48H4V44H7V42H4V38H7V36H4V32H7V30H4V26H7V24H4V20H7V18H4V14H7V12H4V5.414L58.586,60Z" fill="#89253e"/>
<path d="M11,54H42a1,1,0,0,0,.718-1.7l-31-32A1,1,0,0,0,10,21V53A1,1,0,0,0,11,54Zm1-30.53L39.639,52H12Z" fill="#89253e"/>
<path d="M39,17a8,8,0,1,0-8,8A8.009,8.009,0,0,0,39,17ZM25,17a6,6,0,1,1,6,6A6.006,6.006,0,0,1,25,17Z" fill="#89253e"/>
<path d="M61.961,9.726l-2-7a1,1,0,0,0-1.922,0l-2,7A.97.97,0,0,0,56,10V50a3,3,0,0,0,6,0V10A.97.97,0,0,0,61.961,9.726ZM59,6.64,59.674,9H58.326ZM59,51a1,1,0,0,1-1-1V11h2V50A1,1,0,0,1,59,51Z" fill="#89253e"/></g></svg>
