<svg height="511pt" viewBox="0 0 511 511.99964" width="511pt" xmlns="http://www.w3.org/2000/svg"><path d="m504.652344 255.976562c0 128.238282-97.261719 233.765626-222.042969 246.824219-8.59375.902344-17.3125 1.367188-26.148437 1.367188-137.070313 0-248.1875-111.117188-248.1875-248.191407 0-137.070312 111.117187-248.1875 248.1875-248.1875 8.835937 0 17.554687.464844 26.148437 1.367188 124.78125 13.058594 222.042969 118.585938 222.042969 246.820312zm0 0" fill="#91aee2"/><path d="m504.652344 255.976562c0 128.238282-97.261719 233.765626-222.042969 246.824219-124.777344-13.058593-222.039063-118.585937-222.039063-246.824219 0-128.234374 97.261719-233.761718 222.039063-246.820312 124.78125 13.058594 222.042969 118.585938 222.042969 246.820312zm0 0" fill="#bacbec"/><path d="m452.882812 255.976562c0 102.195313-78.457031 186.410157-178.296874 195.585938-5.964844.546875-12.011719.828125-18.125.828125-108.300782 0-196.410157-88.109375-196.410157-196.414063 0-108.300781 88.109375-196.410156 196.410157-196.410156 6.113281 0 12.160156.28125 18.125.828125 99.839843 9.175781 178.296874 93.390625 178.296874 195.582031zm0 0" fill="#2e5aac"/><path d="m452.882812 255.976562c0 102.195313-78.457031 186.410157-178.296874 195.585938-99.84375-9.175781-178.289063-93.390625-178.289063-195.585938 0-102.191406 78.445313-186.40625 178.289063-195.582031 99.839843 9.175781 178.296874 93.390625 178.296874 195.582031zm0 0" fill="#4172cc"/><path d="m310.3125 175.511719c0 6.023437 2.519531 11.753906 6.90625 15.878906 17.207031 16.183594 27.964844 39.152344 27.964844 64.585937 0 48.921876-39.800782 88.710938-88.722656 88.710938-48.917969 0-88.71875-39.789062-88.71875-88.710938 0-25.433593 10.753906-48.402343 27.964843-64.585937 4.386719-4.125 6.90625-9.855469 6.90625-15.878906 0-19.136719-22.847656-28.835938-36.769531-15.710938-25.59375 24.125-41.59375 58.320313-41.59375 96.175781 0 72.898438 59.316406 132.207032 132.210938 132.207032 72.898437 0 132.214843-59.308594 132.214843-132.207032 0-37.855468-16-72.050781-41.59375-96.175781-13.925781-13.125-36.769531-3.425781-36.769531 15.710938zm0 0" fill="#ffc14f"/><path d="m256.460938 233.195312c-12.007813 0-21.746094-9.738281-21.746094-21.746093v-89.0625c0-12.011719 9.738281-21.746094 21.746094-21.746094 12.011718 0 21.75 9.734375 21.75 21.746094v89.0625c0 12.007812-9.738282 21.746093-21.75 21.746093zm0 0" fill="#ffc14f"/><path d="m437.457031 74.984375c-106.578125-106.574219-281.15625-98.320313-377.492187 16.953125-2.75 3.292969-2.3125 8.191406.980468 10.941406 3.289063 2.75 8.191407 2.3125 10.9375-.976562 45.863282-54.878906 113.136719-86.351563 184.578126-86.351563 132.574218 0 240.429687 107.855469 240.429687 240.425781 0 132.574219-107.855469 240.429688-240.429687 240.429688-189.980469 0-304.695313-211.136719-202.386719-370.269531 2.320312-3.609375 1.273437-8.414063-2.332031-10.734375-3.609376-2.320313-8.414063-1.277344-10.734376 2.332031-26.5 41.21875-40.507812 89.023437-40.507812 138.242187 0 68.371094 26.625 132.648438 74.96875 180.996094 100.035156 100.03125 261.941406 100.042969 361.988281 0 100.035157-100.039062 100.039063-261.945312 0-361.988281zm0 0"/><path d="m452.996094 259.695312c4.289062-.085937 7.695312-3.632812 7.605468-7.921874-2.238281-110.195313-92.347656-199.976563-204.140624-199.976563-112.585938 0-204.179688 91.59375-204.179688 204.179687 0 112.589844 91.59375 204.183594 204.179688 204.183594 102.804687 0 188.550781-76.53125 202.273437-176.195312.585937-4.25-2.386719-8.171875-6.632813-8.753906-4.257812-.578126-8.171874 2.382812-8.753906 6.632812-12.78125 92.800781-93.121094 162.785156-186.886718 162.785156-104.019532 0-188.648438-84.628906-188.648438-188.652344 0-104.019531 84.628906-188.648437 188.648438-188.648437 101.933593 0 186.542968 82.882813 188.609374 184.761719.089844 4.289062 3.628907 7.667968 7.925782 7.605468zm0 0"/><path d="m360.53125 337.800781c3.515625 2.453125 8.359375 1.589844 10.8125-1.925781 39.746094-56.976562 31.433594-134.25-18.933594-181.726562-18.585937-17.515626-49.863281-5.035157-49.863281 21.363281 0 8.097656 3.40625 15.945312 9.351563 21.539062 53.253906 50.085938 17.597656 139.867188-55.4375 139.867188-72.972657 0-108.738282-89.734375-55.433594-139.871094 5.941406-5.589844 9.351562-13.4375 9.351562-21.535156 0-26.398438-31.277344-38.882813-49.863281-21.363281-27.984375 26.378906-44.035156 63.492187-44.035156 101.828124 0 77.179688 62.796875 139.972657 139.980469 139.972657 34.367187 0 67.433593-12.621094 93.121093-35.542969 3.199219-2.855469 3.476563-7.765625.621094-10.964844-2.855469-3.203125-7.761719-3.480468-10.964844-.625-79.84375 71.257813-207.222656 14.4375-207.222656-92.835937 0-34.578125 13.90625-66.726563 39.15625-90.527344 3.429687-3.234375 7.105469-3.910156 9.589844-3.910156 13.101562 0 18.71875 15.636719 9.621093 24.191406-19.324218 18.175781-30.40625 43.777344-30.40625 70.246094 0 53.195312 43.285157 96.476562 96.484376 96.476562 53.203124 0 96.488281-43.28125 96.488281-96.476562 0-26.46875-11.082031-52.070313-30.40625-70.246094-2.835938-2.664063-4.460938-6.390625-4.460938-10.222656 0-12.316407 14.667969-18.546875 23.671875-10.058594 46.652344 43.972656 50.820313 112.835937 16.851563 161.53125-2.457031 3.519531-1.59375 8.359375 1.925781 10.816406zm0 0"/><path d="m285.976562 211.449219v-89.0625c0-16.273438-13.238281-29.515625-29.515624-29.515625-16.273438 0-29.511719 13.242187-29.511719 29.515625v89.0625c0 16.273437 13.238281 29.511719 29.511719 29.511719 16.277343 0 29.515624-13.238282 29.515624-29.511719zm-43.496093 0v-89.0625c0-7.710938 6.273437-13.980469 13.980469-13.980469 7.710937 0 13.980468 6.269531 13.980468 13.980469v89.0625c0 7.707031-6.269531 13.980469-13.980468 13.980469-7.707032 0-13.980469-6.273438-13.980469-13.980469zm0 0"/></svg>