<svg id="Capa_1" enable-background="new 0 0 512 512" height="512" viewBox="0 0 512 512" width="512" xmlns="http://www.w3.org/2000/svg"><g><path clip-rule="evenodd" d="m256 124.612c34.3 0 62.307-28.007 62.307-62.307 0-34.326-28.007-62.305-62.307-62.305-34.328 0-62.307 27.979-62.307 62.306 0 34.299 27.979 62.306 62.307 62.306z" fill="#df646e" fill-rule="evenodd"/><path clip-rule="evenodd" d="m256 0c34.413 0 62.307 27.894 62.307 62.306 0 34.414-27.894 62.307-62.307 62.307-4.28 0-8.476-.425-12.501-1.247 28.403-5.81 49.805-30.926 49.805-61.059 0-30.132-21.402-55.247-49.805-61.059 4.025-.822 8.221-1.248 12.501-1.248z" fill="#dc4955" fill-rule="evenodd"/><path d="m255.631 26.618c2.58-3.233 7.257-3.799 10.488-1.248 3.26 2.58 3.798 7.258 1.248 10.488l-13.635 17.264 19.417 8.56c4.763 2.098 5.954 8.248 2.467 11.963l-19.276 24.35c-2.551 3.231-7.229 3.798-10.488 1.247-3.231-2.579-3.77-7.256-1.219-10.488l13.635-17.264-19.417-8.56c-4.451-1.956-5.897-7.653-2.864-11.48z" fill="#f3d332"/><path d="m340.559 400.824c0-4.139 3.345-7.483 7.483-7.483 4.139 0 7.512 3.345 7.512 7.483v15.533c0 8.137-3.316 15.506-8.674 20.863-5.329 5.331-12.699 8.647-20.835 8.647-3.968 0-7.597 1.643-10.233 4.279-2.636 2.608-4.252 6.236-4.252 10.233v15.534c0 4.139-3.374 7.483-7.512 7.483-4.139 0-7.483-3.345-7.483-7.483v-15.534c0-8.136 3.316-15.505 8.646-20.863 5.357-5.33 12.728-8.647 20.835-8.647 3.997 0 7.597-1.644 10.233-4.279 2.636-2.608 4.28-6.236 4.28-10.234zm-184.113 0c0-4.139 3.345-7.483 7.484-7.483 4.167 0 7.512 3.345 7.512 7.483v15.533c0 3.998 1.644 7.626 4.252 10.234 2.636 2.636 6.265 4.279 10.262 4.279 8.107 0 15.477 3.316 20.835 8.647 5.329 5.358 8.645 12.727 8.645 20.863v15.534c0 4.139-3.345 7.483-7.483 7.483s-7.512-3.345-7.512-7.483v-15.534c0-3.997-1.644-7.625-4.252-10.233-2.636-2.636-6.265-4.279-10.233-4.279-8.136 0-15.506-3.316-20.863-8.647-5.33-5.357-8.646-12.727-8.646-20.863v-15.534z" fill="#78c2a4"/><g clip-rule="evenodd" fill-rule="evenodd"><path d="m237.943 392.235h36.113v92.269h-36.113z" fill="#8ac7fd"/><path d="m152.165 512h207.641c9.95 0 18.057-8.106 18.057-18.057 0-9.921-8.107-18.028-18.057-18.028h-207.641c-9.921 0-18.057 8.107-18.057 18.028.001 9.951 8.136 18.057 18.057 18.057z" fill="#b1abb4"/><path d="m334.804 512h25.002c9.95 0 18.057-8.106 18.057-18.057 0-9.921-8.107-18.028-18.057-18.028h-25.002c9.95 0 18.057 8.107 18.057 18.028 0 9.951-8.107 18.057-18.057 18.057z" fill="#a29aa5"/><path d="m70.3 165.886h371.4c14.173 0 25.796 11.594 25.796 25.768v183.403c0 14.174-11.623 25.768-25.796 25.768h-371.4c-14.173 0-25.796-11.594-25.796-25.768v-183.404c0-14.173 11.623-25.767 25.796-25.767z" fill="#027096"/><path d="m416.698 165.886h25.002c14.173 0 25.796 11.594 25.796 25.768v183.403c0 14.174-11.623 25.768-25.796 25.768h-25.002c14.173 0 25.796-11.594 25.796-25.768v-183.404c0-14.173-11.622-25.767-25.796-25.767z" fill="#025d7f"/><path d="m88.017 198.23h42.719c6.633 0 12.047 5.442 12.047 12.047v12.048c0 6.605-5.414 12.02-12.047 12.02h-42.719c-6.633 0-12.047-5.414-12.047-12.02v-12.048c-.001-6.605 5.413-12.047 12.047-12.047zm293.247 134.136h42.719c6.633 0 12.047 5.414 12.047 12.02v12.047c0 6.605-5.414 12.048-12.047 12.048h-42.719c-6.633 0-12.047-5.442-12.047-12.048v-12.047c0-6.606 5.414-12.02 12.047-12.02zm0-67.068h42.719c6.633 0 12.047 5.414 12.047 12.048v12.019c0 6.634-5.414 12.048-12.047 12.048h-42.719c-6.633 0-12.047-5.414-12.047-12.048v-12.019c0-6.634 5.414-12.048 12.047-12.048zm0-67.068h42.719c6.633 0 12.047 5.442 12.047 12.047v12.048c0 6.605-5.414 12.02-12.047 12.02h-42.719c-6.633 0-12.047-5.414-12.047-12.02v-12.048c0-6.605 5.414-12.047 12.047-12.047zm-97.767 134.136h42.747c6.604 0 12.018 5.414 12.018 12.02v12.047c0 6.605-5.414 12.048-12.018 12.048h-42.747c-6.605 0-12.02-5.442-12.02-12.048v-12.047c0-6.606 5.415-12.02 12.02-12.02zm0-67.068h42.747c6.604 0 12.018 5.414 12.018 12.048v12.019c0 6.634-5.414 12.048-12.018 12.048h-42.747c-6.605 0-12.02-5.414-12.02-12.048v-12.019c0-6.634 5.415-12.048 12.02-12.048zm0-67.068h42.747c6.604 0 12.018 5.442 12.018 12.047v12.048c0 6.605-5.414 12.02-12.018 12.02h-42.747c-6.605 0-12.02-5.414-12.02-12.02v-12.048c0-6.605 5.415-12.047 12.02-12.047zm-97.741 134.136h42.719c6.633 0 12.048 5.414 12.048 12.02v12.047c0 6.605-5.415 12.048-12.048 12.048h-42.719c-6.604 0-12.047-5.442-12.047-12.048v-12.047c0-6.606 5.443-12.02 12.047-12.02zm0-67.068h42.719c6.633 0 12.048 5.414 12.048 12.048v12.019c0 6.634-5.415 12.048-12.048 12.048h-42.719c-6.604 0-12.047-5.414-12.047-12.048v-12.019c0-6.634 5.443-12.048 12.047-12.048zm0-67.068h42.719c6.633 0 12.048 5.442 12.048 12.047v12.048c0 6.605-5.415 12.02-12.048 12.02h-42.719c-6.604 0-12.047-5.414-12.047-12.02v-12.048c0-6.605 5.443-12.047 12.047-12.047zm-97.739 134.136h42.719c6.633 0 12.047 5.414 12.047 12.02v12.047c0 6.605-5.414 12.048-12.047 12.048h-42.719c-6.633 0-12.047-5.442-12.047-12.048v-12.047c-.001-6.606 5.413-12.02 12.047-12.02zm0-67.068h42.719c6.633 0 12.047 5.414 12.047 12.048v12.019c0 6.634-5.414 12.048-12.047 12.048h-42.719c-6.633 0-12.047-5.414-12.047-12.048v-12.019c-.001-6.634 5.413-12.048 12.047-12.048z" fill="#89bad5"/><path d="m105.733 198.23h25.002c6.633 0 12.047 5.442 12.047 12.047v12.048c0 6.605-5.414 12.02-12.047 12.02h-25.002c6.633 0 12.047-5.414 12.047-12.02v-12.048c.001-6.605-5.413-12.047-12.047-12.047zm293.248 134.136h25.002c6.633 0 12.047 5.414 12.047 12.02v12.047c0 6.605-5.414 12.048-12.047 12.048h-25.002c6.633 0 12.047-5.442 12.047-12.048v-12.047c.001-6.606-5.414-12.02-12.047-12.02zm0-67.068h25.002c6.633 0 12.047 5.414 12.047 12.048v12.019c0 6.634-5.414 12.048-12.047 12.048h-25.002c6.633 0 12.047-5.414 12.047-12.048v-12.019c.001-6.634-5.414-12.048-12.047-12.048zm0-67.068h25.002c6.633 0 12.047 5.442 12.047 12.047v12.048c0 6.605-5.414 12.02-12.047 12.02h-25.002c6.633 0 12.047-5.414 12.047-12.02v-12.048c.001-6.605-5.414-12.047-12.047-12.047zm-97.739 134.136h25.002c6.604 0 12.018 5.414 12.018 12.02v12.047c0 6.605-5.414 12.048-12.018 12.048h-25.002c6.604 0 12.019-5.442 12.019-12.048v-12.047c0-6.606-5.415-12.02-12.019-12.02zm0-67.068h25.002c6.604 0 12.018 5.414 12.018 12.048v12.019c0 6.634-5.414 12.048-12.018 12.048h-25.002c6.604 0 12.019-5.414 12.019-12.048v-12.019c0-6.634-5.415-12.048-12.019-12.048zm0-67.068h25.002c6.604 0 12.018 5.442 12.018 12.047v12.048c0 6.605-5.414 12.02-12.018 12.02h-25.002c6.604 0 12.019-5.414 12.019-12.02v-12.048c0-6.605-5.415-12.047-12.019-12.047zm-97.768 134.136h25.001c6.633 0 12.048 5.414 12.048 12.02v12.047c0 6.605-5.415 12.048-12.048 12.048h-25.001c6.633 0 12.047-5.442 12.047-12.048v-12.047c0-6.606-5.415-12.02-12.047-12.02zm0-67.068h25.001c6.633 0 12.048 5.414 12.048 12.048v12.019c0 6.634-5.415 12.048-12.048 12.048h-25.001c6.633 0 12.047-5.414 12.047-12.048v-12.019c0-6.634-5.415-12.048-12.047-12.048zm0-67.068h25.001c6.633 0 12.048 5.442 12.048 12.047v12.048c0 6.605-5.415 12.02-12.048 12.02h-25.001c6.633 0 12.047-5.414 12.047-12.02v-12.048c0-6.605-5.415-12.047-12.047-12.047zm-97.741 134.136h25.002c6.633 0 12.047 5.414 12.047 12.02v12.047c0 6.605-5.414 12.048-12.047 12.048h-25.002c6.633 0 12.047-5.442 12.047-12.048v-12.047c.001-6.606-5.413-12.02-12.047-12.02zm0-67.068h25.002c6.633 0 12.047 5.414 12.047 12.048v12.019c0 6.634-5.414 12.048-12.047 12.048h-25.002c6.633 0 12.047-5.414 12.047-12.048v-12.019c.001-6.634-5.413-12.048-12.047-12.048z" fill="#6ea9c8"/></g></g></svg>