<svg id="Layer_1" enable-background="new 0 0 512 512" height="512" viewBox="0 0 512 512" width="512" xmlns="http://www.w3.org/2000/svg"><path d="m383.739 421.878c-3.338 2.453-4.055 7.147-1.602 10.485 10.705 14.566 16.363 31.851 16.363 49.987v14.65h-33v-18.5c0-6.341-5.159-11.5-11.5-11.5h-64c-6.341 0-11.5 5.159-11.5 11.5v18.5h-118.072c-4.142 0-7.5 3.358-7.5 7.5s3.358 7.5 7.5 7.5h239.572c7.444 0 13.5-6.056 13.5-13.5v-16.15c0-21.354-6.666-41.711-19.276-58.87-2.454-3.338-7.149-4.055-10.485-1.602zm-90.239 75.122v-15h57v15z" fill="#89253e"/><path d="m418.5 148.097v-7.982c0-77.26-62.855-140.115-140.115-140.115h-41.41c-27.37 0-53.985 7.736-76.968 22.372-3.494 2.225-4.522 6.861-2.297 10.355s6.86 4.522 10.355 2.297c20.57-13.1 44.399-20.024 68.91-20.024h41.41c68.989 0 125.115 56.126 125.115 125.115v7.385h-10.287c-.117-7.398-.842-14.595-2.168-21.479-5.424-28.146-16.142-48.02-33.729-62.542-22.517-18.591-55.657-27.629-101.316-27.629s-78.799 9.038-101.315 27.629c-17.588 14.522-28.305 34.396-33.729 62.542-1.327 6.884-2.052 14.082-2.169 21.479h-10.287v-4.025c0-33.541 12.847-65.278 36.173-89.366 2.881-2.976 2.805-7.724-.17-10.605-2.976-2.882-7.723-2.805-10.605.17-26.051 26.901-40.398 62.345-40.398 99.801v4.622c-16.481 3.062-29 17.548-29 34.903v64c0 19.575 15.925 35.5 35.5 35.5h2.5v10.5c0 9.649 7.851 17.5 17.5 17.5h43.884c13.736 18.127 32.695 32.087 54.616 39.622v18.277l-17.346 14.451h-3.154c-54.864 0-99.5 44.636-99.5 99.5v16.15c0 7.444 6.056 13.5 13.5 13.5h15.777c4.142 0 7.5-3.358 7.5-7.5s-3.358-7.5-7.5-7.5h-14.277v-14.65c0-46.593 37.907-84.5 84.5-84.5h2.526l26.945 29.871c4.259 4.723 11.832 3.989 15.14-1.375l13.389-21.706 13.389 21.706c3.304 5.358 10.876 6.103 15.14 1.376l26.945-29.872h2.526c16.799 0 33.026 4.916 46.925 14.216 3.432 2.295 8.092 1.392 10.404-2.063 2.303-3.443 1.38-8.101-2.063-10.404-16.375-10.957-35.486-16.749-55.266-16.749h-3.154l-17.346-14.451v-18.277c33.562-11.535 60.181-38.136 71.742-71.686 3.503 2.555 7.816 4.064 12.474 4.064h34.284c19.575 0 35.5-15.925 35.5-35.5v-64c0-17.355-12.519-31.841-29-34.903zm-282.815-19.238c7.433-38.575 27.54-78.009 120.315-78.009s112.882 39.434 120.316 78.009c1.148 5.955 1.781 12.2 1.896 18.641h-.496c-11.698 0-21.216 9.518-21.216 21.216v48.122c-.112-.006-.217-.016-.312-.031-3.166-8.103-6.719-54.76-7.184-59.564-.987-11.947-6.398-27.44-18.628-35.096-6.221-3.895-16.811-7.31-31.931-1.448-25.784 10.012-59.106 10.012-84.895-.002-15.117-5.859-25.705-2.445-31.926 1.45-12.23 7.656-17.642 23.149-18.628 35.09-.647 6.682-4.038 51.515-7.185 59.569-.094.015-.199.026-.312.032v-48.123c0-11.698-9.518-21.216-21.216-21.216h-.496c.116-6.439.75-12.685 1.898-18.64zm-56.185 118.141v-64c0-11.304 9.196-20.5 20.5-20.5h34.284c3.427 0 6.216 2.789 6.216 6.216v54.015c-.002.1-.002.201 0 .301v38.252c0 3.427-2.789 6.216-6.216 6.216h-34.284c-11.304 0-20.5-9.196-20.5-20.5zm40.5 48.5c-1.378 0-2.5-1.122-2.5-2.5v-10.5h16.784c4.658 0 8.97-1.509 12.474-4.064 2.04 5.919 4.548 11.622 7.481 17.064zm113.696 116.728-19.037-21.105 12.003-10 19.011 11.687zm44.608 0-11.978-19.418 19.011-11.687 12.003 10zm.196-44.51-22.5 13.832-22.5-13.831v-13.556c7.258 1.435 14.758 2.188 22.43 2.188h.14c7.672 0 15.172-.753 22.43-2.188zm-22.43-26.368h-.14c-28.393 0-54.072-11.844-72.356-30.85h34.926v.5c0 8.547 6.953 15.5 15.5 15.5h44c8.547 0 15.5-6.953 15.5-15.5v-16c0-8.547-6.953-15.5-15.5-15.5h-44c-8.547 0-15.5 6.953-15.5 15.5v.5h-46.841c-10.219-15.723-16.159-34.471-16.159-54.58v-9.083c7.615-.102 11.37-4.251 12.996-6.9 5.377-8.781 7.84-50.256 9.449-66.459.656-7.944 4.098-18.896 11.638-23.616 4.823-3.019 11.063-3.079 18.542-.18 29.083 11.293 66.667 11.293 95.746.002 7.483-2.901 13.724-2.841 18.546.178 7.541 4.72 10.982 15.672 11.639 23.621 1.467 14.78 4.047 57.633 9.453 66.462 1.622 2.642 5.378 6.787 12.992 6.891v9.084c-.001 55.377-45.054 100.43-100.431 100.43zm-22.57-46.35c0-.276.224-.5.5-.5h44c.276 0 .5.224.5.5v16c0 .276-.224.5-.5.5h-44c-.276 0-.5-.224-.5-.5.212-11.64.039-13.967 0-16zm199-48c0 11.304-9.196 20.5-20.5 20.5h-34.284c-3.427 0-6.216-2.789-6.216-6.216v-38.251c.002-.101.002-.201 0-.302v-54.015c0-3.427 2.789-6.216 6.216-6.216h34.284c11.304 0 20.5 9.196 20.5 20.5z" fill="#89253e"/></svg>