<?xml version="1.0" encoding="iso-8859-1"?>
<!-- Generator: Adobe Illustrator 19.0.0, SVG Export Plug-In . SVG Version: 6.00 Build 0)  -->
<svg version="1.1" id="Capa_1" xmlns="http://www.w3.org/2000/svg" xmlns:xlink="http://www.w3.org/1999/xlink" x="0px" y="0px"
	 viewBox="0 0 512 512" style="enable-background:new 0 0 512 512;" xml:space="preserve">
<circle style="fill:#005C83;" cx="256" cy="256" r="256"/>
<path style="fill:#00263F;" d="M263.488,511.883c133.555-3.838,241.483-109.956,248.181-242.775L313.414,70.852l-3.3,44.659
	l-53.916-53.916l52.985,224.251l-223.48-16.111l127.808,127.808l-51.37,14.536L263.488,511.883z"/>
<path style="fill:#35CCFF;" d="M123.058,317.857c0-73.531,133.14-256.263,133.14-256.263s133.14,182.732,133.14,256.263
	s-59.609,133.14-133.14,133.14S123.058,391.388,123.058,317.857z"/>
<path style="fill:#00BAFF;" d="M256.198,450.997c73.531,0,133.14-59.609,133.14-133.14S256.198,61.595,256.198,61.595V450.997z"/>
<g>
	<path style="fill:#FFFFFF;" d="M313.414,198.492c-3.617-38.93-24.89-60.203-63.82-63.82c38.93-3.616,60.203-24.89,63.82-63.82
		c3.616,38.93,24.89,60.203,63.82,63.82C338.303,138.288,317.03,159.562,313.414,198.492z"/>
	<path style="fill:#FFFFFF;" d="M134.949,318.98c-2.791-30.04-19.206-46.455-49.246-49.246c30.04-2.791,46.455-19.206,49.245-49.246
		c2.791,30.04,19.206,46.455,49.246,49.246C154.154,272.525,137.739,288.94,134.949,318.98z"/>
</g>
<g>
</g>
<g>
</g>
<g>
</g>
<g>
</g>
<g>
</g>
<g>
</g>
<g>
</g>
<g>
</g>
<g>
</g>
<g>
</g>
<g>
</g>
<g>
</g>
<g>
</g>
<g>
</g>
<g>
</g>
</svg>
